<svg width="325" height="153" viewBox="0 0 325 153" fill="none" xmlns="http://www.w3.org/2000/svg">
<path d="M25.92 65.64C21.2267 65.64 17.1947 64.7013 13.824 62.824C10.496 60.904 7.936 58.216 6.144 54.76C4.352 51.2613 3.456 47.144 3.456 42.408C3.456 37.672 4.352 33.576 6.144 30.12C7.936 26.664 10.496 23.9973 13.824 22.12C17.1947 20.2 21.2267 19.24 25.92 19.24C28.9493 19.24 31.808 19.7093 34.496 20.648C37.2267 21.5867 39.4667 22.9307 41.216 24.68L38.528 31.208C36.608 29.5867 34.6453 28.4133 32.64 27.688C30.6347 26.92 28.48 26.536 26.176 26.536C21.6107 26.536 18.1333 27.9227 15.744 30.696C13.3547 33.4267 12.16 37.3307 12.16 42.408C12.16 47.4853 13.3547 51.4107 15.744 54.184C18.1333 56.9573 21.6107 58.344 26.176 58.344C28.48 58.344 30.6347 57.9813 32.64 57.256C34.6453 56.488 36.608 55.2933 38.528 53.672L41.216 60.2C39.4667 61.9067 37.2267 63.2507 34.496 64.232C31.808 65.1707 28.9493 65.64 25.92 65.64ZM48.3655 65V19.88H78.3815V26.408H56.2375V38.824H76.9735V45.352H56.2375V58.472H78.3815V65H48.3655ZM105.305 65.64C99.1183 65.64 94.3823 64.04 91.097 60.84C87.8543 57.5973 86.233 52.8187 86.233 46.504V19.88H94.425V46.44C94.425 50.4933 95.3423 53.544 97.177 55.592C99.0543 57.5973 101.764 58.6 105.305 58.6C112.516 58.6 116.121 54.5467 116.121 46.44V19.88H124.249V46.504C124.249 52.8187 122.649 57.5973 119.449 60.84C116.249 64.04 111.534 65.64 105.305 65.64ZM149.355 65.64C145.814 65.64 142.528 65.192 139.499 64.296C136.47 63.3573 133.91 62.0987 131.819 60.52L134.315 54.056C136.406 55.5493 138.688 56.7013 141.163 57.512C143.68 58.3227 146.411 58.728 149.355 58.728C152.726 58.728 155.179 58.1733 156.715 57.064C158.251 55.912 159.019 54.44 159.019 52.648C159.019 51.1547 158.464 49.9813 157.355 49.128C156.288 48.2747 154.432 47.5707 151.787 47.016L144.747 45.544C136.726 43.8373 132.715 39.72 132.715 33.192C132.715 30.376 133.462 27.9227 134.955 25.832C136.448 23.7413 138.518 22.12 141.163 20.968C143.808 19.816 146.859 19.24 150.315 19.24C153.387 19.24 156.267 19.7093 158.955 20.648C161.643 21.544 163.883 22.824 165.675 24.488L163.179 30.632C159.638 27.6453 155.328 26.152 150.251 26.152C147.307 26.152 145.003 26.7707 143.339 28.008C141.675 29.2453 140.843 30.8667 140.843 32.872C140.843 34.408 141.355 35.6453 142.379 36.584C143.403 37.48 145.152 38.184 147.627 38.696L154.603 40.168C158.827 41.064 161.963 42.472 164.011 44.392C166.102 46.312 167.147 48.872 167.147 52.072C167.147 54.76 166.422 57.128 164.971 59.176C163.52 61.224 161.451 62.824 158.763 63.976C156.118 65.0853 152.982 65.64 149.355 65.64Z" fill="white"/>
<path d="M25.92 130.64C21.2267 130.64 17.1947 129.701 13.824 127.824C10.496 125.904 7.936 123.216 6.144 119.76C4.352 116.261 3.456 112.144 3.456 107.408C3.456 102.672 4.352 98.576 6.144 95.12C7.936 91.664 10.496 88.9973 13.824 87.12C17.1947 85.2 21.2267 84.24 25.92 84.24C28.9493 84.24 31.808 84.7093 34.496 85.648C37.2267 86.5867 39.4667 87.9307 41.216 89.68L38.528 96.208C36.608 94.5867 34.6453 93.4133 32.64 92.688C30.6347 91.92 28.48 91.536 26.176 91.536C21.6107 91.536 18.1333 92.9227 15.744 95.696C13.3547 98.4267 12.16 102.331 12.16 107.408C12.16 112.485 13.3547 116.411 15.744 119.184C18.1333 121.957 21.6107 123.344 26.176 123.344C28.48 123.344 30.6347 122.981 32.64 122.256C34.6453 121.488 36.608 120.293 38.528 118.672L41.216 125.2C39.4667 126.907 37.2267 128.251 34.496 129.232C31.808 130.171 28.9493 130.64 25.92 130.64ZM59.6195 130.64C56.3768 130.64 53.5608 129.979 51.1715 128.656C48.7822 127.333 46.9262 125.456 45.6035 123.024C44.2808 120.549 43.6195 117.648 43.6195 114.32C43.6195 110.992 44.2808 108.112 45.6035 105.68C46.9262 103.248 48.7822 101.371 51.1715 100.048C53.5608 98.7253 56.3768 98.064 59.6195 98.064C62.8622 98.064 65.6782 98.7253 68.0675 100.048C70.4568 101.371 72.3128 103.248 73.6355 105.68C74.9582 108.112 75.6195 110.992 75.6195 114.32C75.6195 117.648 74.9582 120.549 73.6355 123.024C72.3128 125.456 70.4568 127.333 68.0675 128.656C65.6782 129.979 62.8622 130.64 59.6195 130.64ZM59.6195 124.56C62.0088 124.56 63.9288 123.707 65.3795 122C66.8302 120.251 67.5555 117.691 67.5555 114.32C67.5555 110.907 66.8302 108.368 65.3795 106.704C63.9288 104.997 62.0088 104.144 59.6195 104.144C57.2302 104.144 55.3102 104.997 53.8595 106.704C52.4088 108.368 51.6835 110.907 51.6835 114.32C51.6835 117.691 52.4088 120.251 53.8595 122C55.3102 123.707 57.2302 124.56 59.6195 124.56ZM82.2225 130V98.704H90.0305V103.568C91.0972 101.776 92.5265 100.411 94.3185 99.472C96.1532 98.5333 98.2012 98.064 100.463 98.064C107.844 98.064 111.535 102.352 111.535 110.928V130H103.535V111.312C103.535 108.88 103.065 107.109 102.127 106C101.231 104.891 99.8225 104.336 97.9025 104.336C95.5558 104.336 93.6785 105.083 92.2705 106.576C90.9052 108.027 90.2225 109.968 90.2225 112.4V130H82.2225ZM131.116 130.64C128.471 130.64 125.996 130.32 123.692 129.68C121.388 129.04 119.468 128.123 117.932 126.928L119.98 121.68C121.559 122.747 123.329 123.579 125.292 124.176C127.255 124.731 129.217 125.008 131.18 125.008C133.228 125.008 134.743 124.667 135.724 123.984C136.748 123.259 137.26 122.32 137.26 121.168C137.26 119.376 135.937 118.224 133.292 117.712L126.892 116.496C121.473 115.472 118.764 112.656 118.764 108.048C118.764 106 119.319 104.229 120.428 102.736C121.58 101.243 123.159 100.091 125.164 99.28C127.169 98.4693 129.473 98.064 132.076 98.064C134.295 98.064 136.428 98.384 138.476 99.024C140.524 99.6213 142.273 100.539 143.724 101.776L141.548 107.024C140.311 106 138.817 105.189 137.068 104.592C135.361 103.995 133.719 103.696 132.14 103.696C130.049 103.696 128.492 104.059 127.468 104.784C126.487 105.509 125.996 106.469 125.996 107.664C125.996 109.541 127.212 110.693 129.644 111.12L136.044 112.336C138.817 112.848 140.908 113.787 142.316 115.152C143.767 116.517 144.492 118.352 144.492 120.656C144.492 123.771 143.276 126.224 140.844 128.016C138.412 129.765 135.169 130.64 131.116 130.64ZM162.238 130.64C154.558 130.64 150.718 126.331 150.718 117.712V98.704H158.718V117.84C158.718 120.059 159.166 121.701 160.062 122.768C160.958 123.835 162.387 124.368 164.35 124.368C166.483 124.368 168.233 123.643 169.598 122.192C170.963 120.699 171.646 118.736 171.646 116.304V98.704H179.646V130H171.838V125.328C169.747 128.869 166.547 130.64 162.238 130.64ZM198.853 130.64C195.141 130.64 192.389 129.637 190.597 127.632C188.847 125.584 187.973 122.597 187.973 118.672V84.88H195.973V118.288C195.973 122.128 197.594 124.048 200.837 124.048C201.306 124.048 201.775 124.027 202.245 123.984C202.714 123.941 203.162 123.856 203.589 123.728L203.461 130.064C201.925 130.448 200.389 130.64 198.853 130.64ZM221.934 130.64C213.656 130.64 209.518 126.544 209.518 118.352V104.72H203.502V98.704H209.518V89.36H217.518V98.704H226.99V104.72H217.518V117.904C217.518 119.952 217.966 121.488 218.862 122.512C219.758 123.536 221.208 124.048 223.214 124.048C223.811 124.048 224.43 123.984 225.07 123.856C225.71 123.685 226.371 123.515 227.054 123.344L228.27 129.232C227.502 129.659 226.52 130 225.326 130.256C224.174 130.512 223.043 130.64 221.934 130.64ZM231.648 91.984V84.176H240.608V91.984H231.648ZM232.16 130V98.704H240.16V130H232.16ZM248.473 130V98.704H256.281V103.568C257.347 101.776 258.777 100.411 260.569 99.472C262.403 98.5333 264.451 98.064 266.713 98.064C274.094 98.064 277.785 102.352 277.785 110.928V130H269.785V111.312C269.785 108.88 269.315 107.109 268.377 106C267.481 104.891 266.073 104.336 264.153 104.336C261.806 104.336 259.929 105.083 258.521 106.576C257.155 108.027 256.473 109.968 256.473 112.4V130H248.473ZM300.502 142.16C297.601 142.16 294.87 141.819 292.31 141.136C289.793 140.496 287.574 139.493 285.654 138.128L287.958 132.56C289.75 133.755 291.67 134.629 293.718 135.184C295.766 135.781 297.814 136.08 299.862 136.08C305.579 136.08 308.438 133.328 308.438 127.824V123.536C307.542 125.285 306.155 126.672 304.278 127.696C302.443 128.72 300.395 129.232 298.134 129.232C295.318 129.232 292.865 128.592 290.774 127.312C288.683 125.989 287.062 124.155 285.91 121.808C284.758 119.461 284.182 116.731 284.182 113.616C284.182 110.501 284.758 107.792 285.91 105.488C287.062 103.141 288.683 101.328 290.774 100.048C292.865 98.7253 295.318 98.064 298.134 98.064C300.481 98.064 302.571 98.5973 304.406 99.664C306.241 100.688 307.585 102.075 308.438 103.824V98.704H316.246V126.864C316.246 131.941 314.902 135.76 312.214 138.32C309.526 140.88 305.622 142.16 300.502 142.16ZM300.31 123.152C302.785 123.152 304.747 122.299 306.198 120.592C307.649 118.885 308.374 116.56 308.374 113.616C308.374 110.672 307.649 108.368 306.198 106.704C304.747 104.997 302.785 104.144 300.31 104.144C297.835 104.144 295.873 104.997 294.422 106.704C292.971 108.368 292.246 110.672 292.246 113.616C292.246 116.56 292.971 118.885 294.422 120.592C295.873 122.299 297.835 123.152 300.31 123.152Z" fill="white"/>
</svg>
