<svg id="4268de9b-e4cd-4e61-927b-166d61812aba" data-name="Layer 1" xmlns="http://www.w3.org/2000/svg" viewBox="0 0 620.13 519.15"><title>Favicon</title><g style="opacity:0.75"><path d="M446,438c-.72,0-73.32-.36-154-31.49-47.43-18.31-88.36-43.52-121.66-74.94-41.66-39.32-78.31-84.35-93.76-145.54-.41-1.64,5.77-3.89,7.34-4.47l284.1-105a3.17,3.17,0,0,1,1.09-.19,3.13,3.13,0,0,1,2.4,1.12c.32.38,19.74,49.22,76.11,65.4,1.05.3,1.5,1.6,1.5,2.71V434.83A3.17,3.17,0,0,1,446,438Z" transform="translate(-3.84 1.12)" style="fill:#3b7198"/><path d="M446,438c-.72,0-73.32-.36-154-31.49-47.43-18.31-88.36-43.52-121.66-74.94-41.66-39.32-78.31-84.35-93.76-145.54-.41-1.64,5.77-3.89,7.34-4.47l284.1-105a3.17,3.17,0,0,1,1.09-.19,3.13,3.13,0,0,1,2.4,1.12c.32.38,19.74,49.22,76.11,65.4,1.05.3,1.5,1.6,1.5,2.71V434.83A3.17,3.17,0,0,1,446,438Z" transform="translate(-3.84 1.12)" style="fill:none;stroke:#3bb397;stroke-width:60px"/></g><path d="M465.94,488c-.85,0-86.75-.43-181.52-38-56.12-22.23-104.64-52.92-144.22-91.23C90.45,310.66,55,250.51,34.74,180.05c-3.25-11.29,2.58-23.31,13.25-27.36L371.13,30.24a20.86,20.86,0,0,1,7.4-1.36,21.21,21.21,0,0,1,16.39,7.83c.33.39,26.29,52.06,82.34,72.56,7.1,2.59,10.24,11.2,10.24,19v337.4c0,12.32-9.67,22.34-21.56,22.34Z" transform="translate(-3.84 1.12)" style="fill:none;stroke:#3bb397;stroke-width:60px"/><text x="-3.84" y="1.12"></text><g style="opacity:0.75"><path d="M465.94,488c-.85,0-86.75-.43-181.52-38-56.12-22.23-104.64-52.92-144.22-91.23C90.45,310.66,55,250.51,34.74,180.05c-3.25-11.29,2.58-23.31,13.25-27.36L371.13,30.24a20.86,20.86,0,0,1,7.4-1.36,21.21,21.21,0,0,1,16.39,7.83c.33.39,26.29,52.06,82.34,72.56,7.1,2.59,10.24,11.2,10.24,19v337.4c0,12.32-9.67,22.34-21.56,22.34Z" transform="translate(-3.84 1.12)" style="fill:none;stroke:#fff;stroke-width:20px"/></g></svg>