<svg width="501" height="165" viewBox="0 0 501 165" fill="none" xmlns="http://www.w3.org/2000/svg">
<path d="M201.92 77.64C197.227 77.64 193.195 76.7013 189.824 74.824C186.496 72.904 183.936 70.216 182.144 66.76C180.352 63.2613 179.456 59.144 179.456 54.408C179.456 49.672 180.352 45.576 182.144 42.12C183.936 38.664 186.496 35.9973 189.824 34.12C193.195 32.2 197.227 31.24 201.92 31.24C204.949 31.24 207.808 31.7093 210.496 32.648C213.227 33.5867 215.467 34.9307 217.216 36.68L214.528 43.208C212.608 41.5867 210.645 40.4133 208.64 39.688C206.635 38.92 204.48 38.536 202.176 38.536C197.611 38.536 194.133 39.9227 191.744 42.696C189.355 45.4267 188.16 49.3307 188.16 54.408C188.16 59.4853 189.355 63.4107 191.744 66.184C194.133 68.9573 197.611 70.344 202.176 70.344C204.48 70.344 206.635 69.9813 208.64 69.256C210.645 68.488 212.608 67.2933 214.528 65.672L217.216 72.2C215.467 73.9067 213.227 75.2507 210.496 76.232C207.808 77.1707 204.949 77.64 201.92 77.64ZM224.366 77V31.88H254.382V38.408H232.238V50.824H252.974V57.352H232.238V70.472H254.382V77H224.366ZM281.305 77.64C275.118 77.64 270.382 76.04 267.097 72.84C263.854 69.5973 262.233 64.8187 262.233 58.504V31.88H270.425V58.44C270.425 62.4933 271.342 65.544 273.177 67.592C275.054 69.5973 277.764 70.6 281.305 70.6C288.516 70.6 292.121 66.5467 292.121 58.44V31.88H300.249V58.504C300.249 64.8187 298.649 69.5973 295.449 72.84C292.249 76.04 287.534 77.64 281.305 77.64ZM325.355 77.64C321.814 77.64 318.528 77.192 315.499 76.296C312.47 75.3573 309.91 74.0987 307.819 72.52L310.315 66.056C312.406 67.5493 314.688 68.7013 317.163 69.512C319.68 70.3227 322.411 70.728 325.355 70.728C328.726 70.728 331.179 70.1733 332.715 69.064C334.251 67.912 335.019 66.44 335.019 64.648C335.019 63.1547 334.464 61.9813 333.355 61.128C332.288 60.2747 330.432 59.5707 327.787 59.016L320.747 57.544C312.726 55.8373 308.715 51.72 308.715 45.192C308.715 42.376 309.462 39.9227 310.955 37.832C312.448 35.7413 314.518 34.12 317.163 32.968C319.808 31.816 322.859 31.24 326.315 31.24C329.387 31.24 332.267 31.7093 334.955 32.648C337.643 33.544 339.883 34.824 341.675 36.488L339.179 42.632C335.638 39.6453 331.328 38.152 326.251 38.152C323.307 38.152 321.003 38.7707 319.339 40.008C317.675 41.2453 316.843 42.8667 316.843 44.872C316.843 46.408 317.355 47.6453 318.379 48.584C319.403 49.48 321.152 50.184 323.627 50.696L330.603 52.168C334.827 53.064 337.963 54.472 340.011 56.392C342.102 58.312 343.147 60.872 343.147 64.072C343.147 66.76 342.422 69.128 340.971 71.176C339.52 73.224 337.451 74.824 334.763 75.976C332.118 77.0853 328.982 77.64 325.355 77.64Z" fill="white"/>
<path d="M201.92 142.64C197.227 142.64 193.195 141.701 189.824 139.824C186.496 137.904 183.936 135.216 182.144 131.76C180.352 128.261 179.456 124.144 179.456 119.408C179.456 114.672 180.352 110.576 182.144 107.12C183.936 103.664 186.496 100.997 189.824 99.12C193.195 97.2 197.227 96.24 201.92 96.24C204.949 96.24 207.808 96.7093 210.496 97.648C213.227 98.5867 215.467 99.9307 217.216 101.68L214.528 108.208C212.608 106.587 210.645 105.413 208.64 104.688C206.635 103.92 204.48 103.536 202.176 103.536C197.611 103.536 194.133 104.923 191.744 107.696C189.355 110.427 188.16 114.331 188.16 119.408C188.16 124.485 189.355 128.411 191.744 131.184C194.133 133.957 197.611 135.344 202.176 135.344C204.48 135.344 206.635 134.981 208.64 134.256C210.645 133.488 212.608 132.293 214.528 130.672L217.216 137.2C215.467 138.907 213.227 140.251 210.496 141.232C207.808 142.171 204.949 142.64 201.92 142.64ZM235.62 142.64C232.377 142.64 229.561 141.979 227.172 140.656C224.782 139.333 222.926 137.456 221.604 135.024C220.281 132.549 219.62 129.648 219.62 126.32C219.62 122.992 220.281 120.112 221.604 117.68C222.926 115.248 224.782 113.371 227.172 112.048C229.561 110.725 232.377 110.064 235.62 110.064C238.862 110.064 241.678 110.725 244.068 112.048C246.457 113.371 248.313 115.248 249.636 117.68C250.958 120.112 251.62 122.992 251.62 126.32C251.62 129.648 250.958 132.549 249.636 135.024C248.313 137.456 246.457 139.333 244.068 140.656C241.678 141.979 238.862 142.64 235.62 142.64ZM235.62 136.56C238.009 136.56 239.929 135.707 241.38 134C242.83 132.251 243.556 129.691 243.556 126.32C243.556 122.907 242.83 120.368 241.38 118.704C239.929 116.997 238.009 116.144 235.62 116.144C233.23 116.144 231.31 116.997 229.86 118.704C228.409 120.368 227.684 122.907 227.684 126.32C227.684 129.691 228.409 132.251 229.86 134C231.31 135.707 233.23 136.56 235.62 136.56ZM258.223 142V110.704H266.031V115.568C267.097 113.776 268.527 112.411 270.319 111.472C272.153 110.533 274.201 110.064 276.463 110.064C283.844 110.064 287.535 114.352 287.535 122.928V142H279.535V123.312C279.535 120.88 279.065 119.109 278.127 118C277.231 116.891 275.823 116.336 273.903 116.336C271.556 116.336 269.679 117.083 268.271 118.576C266.905 120.027 266.223 121.968 266.223 124.4V142H258.223ZM307.116 142.64C304.471 142.64 301.996 142.32 299.692 141.68C297.388 141.04 295.468 140.123 293.932 138.928L295.98 133.68C297.559 134.747 299.329 135.579 301.292 136.176C303.255 136.731 305.217 137.008 307.18 137.008C309.228 137.008 310.743 136.667 311.724 135.984C312.748 135.259 313.26 134.32 313.26 133.168C313.26 131.376 311.937 130.224 309.292 129.712L302.892 128.496C297.473 127.472 294.764 124.656 294.764 120.048C294.764 118 295.319 116.229 296.428 114.736C297.58 113.243 299.159 112.091 301.164 111.28C303.169 110.469 305.473 110.064 308.076 110.064C310.295 110.064 312.428 110.384 314.476 111.024C316.524 111.621 318.273 112.539 319.724 113.776L317.548 119.024C316.311 118 314.817 117.189 313.068 116.592C311.361 115.995 309.719 115.696 308.14 115.696C306.049 115.696 304.492 116.059 303.468 116.784C302.487 117.509 301.996 118.469 301.996 119.664C301.996 121.541 303.212 122.693 305.644 123.12L312.044 124.336C314.817 124.848 316.908 125.787 318.316 127.152C319.767 128.517 320.492 130.352 320.492 132.656C320.492 135.771 319.276 138.224 316.844 140.016C314.412 141.765 311.169 142.64 307.116 142.64ZM338.238 142.64C330.558 142.64 326.718 138.331 326.718 129.712V110.704H334.718V129.84C334.718 132.059 335.166 133.701 336.062 134.768C336.958 135.835 338.387 136.368 340.35 136.368C342.483 136.368 344.233 135.643 345.598 134.192C346.963 132.699 347.646 130.736 347.646 128.304V110.704H355.646V142H347.838V137.328C345.747 140.869 342.547 142.64 338.238 142.64ZM374.853 142.64C371.141 142.64 368.389 141.637 366.597 139.632C364.847 137.584 363.973 134.597 363.973 130.672V96.88H371.973V130.288C371.973 134.128 373.594 136.048 376.837 136.048C377.306 136.048 377.775 136.027 378.245 135.984C378.714 135.941 379.162 135.856 379.589 135.728L379.461 142.064C377.925 142.448 376.389 142.64 374.853 142.64ZM397.934 142.64C389.656 142.64 385.518 138.544 385.518 130.352V116.72H379.502V110.704H385.518V101.36H393.518V110.704H402.99V116.72H393.518V129.904C393.518 131.952 393.966 133.488 394.862 134.512C395.758 135.536 397.208 136.048 399.214 136.048C399.811 136.048 400.43 135.984 401.07 135.856C401.71 135.685 402.371 135.515 403.054 135.344L404.27 141.232C403.502 141.659 402.52 142 401.326 142.256C400.174 142.512 399.043 142.64 397.934 142.64ZM407.648 103.984V96.176H416.608V103.984H407.648ZM408.16 142V110.704H416.16V142H408.16ZM424.473 142V110.704H432.281V115.568C433.347 113.776 434.777 112.411 436.569 111.472C438.403 110.533 440.451 110.064 442.713 110.064C450.094 110.064 453.785 114.352 453.785 122.928V142H445.785V123.312C445.785 120.88 445.315 119.109 444.377 118C443.481 116.891 442.073 116.336 440.153 116.336C437.806 116.336 435.929 117.083 434.521 118.576C433.155 120.027 432.473 121.968 432.473 124.4V142H424.473ZM476.502 154.16C473.601 154.16 470.87 153.819 468.31 153.136C465.793 152.496 463.574 151.493 461.654 150.128L463.958 144.56C465.75 145.755 467.67 146.629 469.718 147.184C471.766 147.781 473.814 148.08 475.862 148.08C481.579 148.08 484.438 145.328 484.438 139.824V135.536C483.542 137.285 482.155 138.672 480.278 139.696C478.443 140.72 476.395 141.232 474.134 141.232C471.318 141.232 468.865 140.592 466.774 139.312C464.683 137.989 463.062 136.155 461.91 133.808C460.758 131.461 460.182 128.731 460.182 125.616C460.182 122.501 460.758 119.792 461.91 117.488C463.062 115.141 464.683 113.328 466.774 112.048C468.865 110.725 471.318 110.064 474.134 110.064C476.481 110.064 478.571 110.597 480.406 111.664C482.241 112.688 483.585 114.075 484.438 115.824V110.704H492.246V138.864C492.246 143.941 490.902 147.76 488.214 150.32C485.526 152.88 481.622 154.16 476.502 154.16ZM476.31 135.152C478.785 135.152 480.747 134.299 482.198 132.592C483.649 130.885 484.374 128.56 484.374 125.616C484.374 122.672 483.649 120.368 482.198 118.704C480.747 116.997 478.785 116.144 476.31 116.144C473.835 116.144 471.873 116.997 470.422 118.704C468.971 120.368 468.246 122.672 468.246 125.616C468.246 128.56 468.971 130.885 470.422 132.592C471.873 134.299 473.835 135.152 476.31 135.152Z" fill="white"/>
<path d="M113.901 1C82.965 18.3378 17.0741 54.8591 1 62.2417C40.037 125.329 122.831 147.253 156 143.618V28.6846L132.08 21.9732L113.901 1Z" fill="#FFF9F9" stroke="white"/>
</svg>
