<svg id="dac2dd5e-6fbb-4a71-8a56-01123c773e45" data-name="Layer 1" xmlns="http://www.w3.org/2000/svg" viewBox="0 0 1617.94 478.75"><title>logo open sans</title><g style="opacity:0.75"><path d="M471.39,431.41c-.72,0-73-.36-153.26-31.72-47.2-18.45-87.95-43.85-121.09-75.5-41.47-39.6-77.95-85-93.33-146.61-.41-1.65,5.74-3.92,7.3-4.51L393.81,67.36a2.87,2.87,0,0,1,1.08-.2,3.12,3.12,0,0,1,2.39,1.13c.32.38,19.65,49.58,75.76,65.88,1,.3,1.49,1.62,1.49,2.73V428.2a3.18,3.18,0,0,1-3.14,3.21Z" transform="translate(-41.81 -9.91)" style="fill:none;stroke:#fff;stroke-width:14px"/></g><g style="opacity:0.75"><path d="M494,480.66c-.88,0-89.18-.43-186.62-38.27-57.69-22.4-107.57-53.34-148.25-91.95C108,301.9,71.52,241.28,50.73,170.26a22.64,22.64,0,0,1,13.62-27.57L396.55,19.28a21.7,21.7,0,0,1,7.61-1.37A22,22,0,0,1,421,25.8c.34.4,27,52.47,84.65,73.13,7.3,2.62,10.52,11.29,10.52,19.16v340A22.37,22.37,0,0,1,494,480.66Z" transform="translate(-41.81 -9.91)" style="fill:none;stroke:#fff;stroke-width:16px"/></g><text x="-41.81" y="-9.91"></text><text transform="translate(551.12 264.16) scale(1.22 1)" style="font-size:225px;fill:#fff;font-family:OpenSans-Semibold, Open Sans;font-weight:700">CEUS</text><text transform="translate(551.12 425.73) scale(1.15 1)" style="font-size:180px;fill:#fff;font-family:OpenSans-Semibold, Open Sans;font-weight:700">Consulting</text></svg>