<svg id="d7af12b1-769c-4ae8-bd25-33ff33767834" data-name="Layer 1" xmlns="http://www.w3.org/2000/svg" viewBox="0 0 1500 480"><title>New May 2022 White No shadow</title><g style="opacity:0.75"><path d="M443.11,431.41c-.72,0-73-.36-153.25-31.72-47.21-18.45-88-43.85-121.09-75.5-41.47-39.6-78-85-93.33-146.61-.41-1.65,5.74-3.92,7.3-4.51L365.53,67.36a3,3,0,0,1,1.08-.2A3.09,3.09,0,0,1,369,68.29c.32.38,19.66,49.58,75.77,65.88,1.05.3,1.49,1.62,1.49,2.73V428.2a3.18,3.18,0,0,1-3.15,3.21Z" transform="translate(-13.53 -9.91)" style="fill:none;stroke:#fff;stroke-width:14px"/></g><g style="opacity:0.75"><path d="M465.75,480.66c-.88,0-89.19-.43-186.62-38.27-57.69-22.4-107.57-53.34-148.25-91.95C79.73,301.9,43.25,241.28,22.45,170.26a22.65,22.65,0,0,1,13.63-27.57L368.27,19.28a21.91,21.91,0,0,1,24.46,6.52c.34.4,27,52.47,84.66,73.13,7.29,2.62,10.52,11.29,10.52,19.16v340a22.37,22.37,0,0,1-22.16,22.52Z" transform="translate(-13.53 -9.91)" style="fill:none;stroke:#fff;stroke-width:16px"/></g><text x="-13.53" y="-9.91"></text><text transform="translate(551.12 264.16) scale(1.22 1)" style="font-size:225px;fill:#fff;font-family:Nunito-SemiBold, Nunito SemiBold">CEUS</text><text transform="translate(551.12 425.73) scale(1.15 1)" style="font-size:180px;fill:#fff;font-family:Nunito-SemiBold, Nunito SemiBold"><tspan style="letter-spacing:-0.009994023336352867em">C</tspan><tspan x="120.06" y="0">onsulting</tspan></text></svg>
